<svg xmlns="http://www.w3.org/2000/svg" xmlns:xlink="http://www.w3.org/1999/xlink" width="1024" zoomAndPan="magnify" viewBox="0 0 768 767.999994" height="1024" preserveAspectRatio="xMidYMid meet" version="1.2">
  <metadata><ContainsAiGeneratedContent>Yes</ContainsAiGeneratedContent></metadata>
  <defs>
    <linearGradient id="grad1" x1="0%" y1="0%" x2="100%" y2="100%">
      <stop offset="0%" style="stop-color:#4ECDC4;stop-opacity:1" />
      <stop offset="100%" style="stop-color:#45B7B8;stop-opacity:1" />
    </linearGradient>
  </defs>
  
  <!-- Main background rounded square -->
  <rect x="64" y="64" width="640" height="640" rx="120" ry="120" fill="url(#grad1)"/>
  
  <!-- Cloud decoration -->
  <g transform="translate(480, 150)">
    <circle cx="0" cy="20" r="25" fill="white" opacity="0.9"/>
    <circle cx="20" cy="20" r="30" fill="white" opacity="0.9"/>
    <circle cx="40" cy="20" r="25" fill="white" opacity="0.9"/>
    <circle cx="20" cy="0" r="20" fill="white" opacity="0.9"/>
  </g>
  
  <!-- Trophy -->
  <g transform="translate(384, 250)">
    <!-- Trophy base -->
    <rect x="-15" y="80" width="30" height="15" rx="4" fill="#FFD93D"/>
    <rect x="-20" y="95" width="40" height="8" rx="4" fill="#FFA726"/>
    
    <!-- Trophy stem -->
    <rect x="-8" y="65" width="16" height="20" fill="#FFD93D"/>
    
    <!-- Trophy bowl -->
    <path d="M -30 20 Q -30 10, -20 10 L 20 10 Q 30 10, 30 20 L 30 50 Q 30 70, 10 70 L -10 70 Q -30 70, -30 50 Z" fill="#FFD93D" stroke="#3A4A6B" stroke-width="3"/>
    
    <!-- Trophy handles -->
    <path d="M -30 25 Q -45 25, -45 35 Q -45 45, -30 45" fill="none" stroke="#3A4A6B" stroke-width="3"/>
    <path d="M 30 25 Q 45 25, 45 35 Q 45 45, 30 45" fill="none" stroke="#3A4A6B" stroke-width="3"/>
    
    <!-- Trophy face -->
    <circle cx="-8" cy="35" r="3" fill="#3A4A6B"/>
    <circle cx="8" cy="35" r="3" fill="#3A4A6B"/>
    <path d="M -12 45 Q 0 55, 12 45" stroke="#3A4A6B" stroke-width="2" fill="none"/>
    
    <!-- Star on base -->
    <polygon points="0,75 2,80 7,80 3,83 5,88 0,85 -5,88 -3,83 -7,80 -2,80" fill="#3A4A6B"/>
    
    <!-- Sparkles -->
    <g opacity="0.8">
      <polygon points="-40,30 -38,35 -33,35 -37,38 -35,43 -40,40 -45,43 -43,38 -47,35 -42,35" fill="#FFD93D"/>
      <polygon points="45,15 47,20 52,20 48,23 50,28 45,25 40,28 42,23 38,20 43,20" fill="#FFD93D"/>
      <polygon points="50,55 52,60 57,60 53,63 55,68 50,65 45,68 47,63 43,60 48,60" fill="#FFD93D"/>
    </g>
  </g>
  
  <!-- Text background -->
  <rect x="120" y="520" width="528" height="80" rx="40" ry="40" fill="#3A4A6B"/>
  
  <!-- CHORECHAMP text -->
  <text x="384" y="575" text-anchor="middle" font-family="Arial, sans-serif" font-size="48" font-weight="bold" fill="white">CHORECHAMP</text>
</svg>